<!--?xml version="1.0" encoding="utf-8"?-->
<!-- Generator: Adobe Illustrator 23.0.1, SVG Export Plug-In . SVG Version: 6.00 Build 0)  -->
<svg version="1.1" id="レイヤー_1" xmlns="http://www.w3.org/2000/svg" xmlns:xlink="http://www.w3.org/1999/xlink" x="0px" y="0px" viewBox="0 0 425 225" style="" xml:space="preserve">
<style type="text/css">
	.st0{fill:none;stroke:#725B59;stroke-width:6;stroke-linecap:round;stroke-linejoin:round;stroke-miterlimit:10;}
</style>
<g>
	<path class="st0 BlqSXfYV_0" d="M208.5,116.5c0,0-15,10-24,11s-44-4-67-8s-57.5-2.5-77,5c-19.22,7.39-36,25-33,49s19.22,29.54,24,31
		c11.5,3.5,33,8,56-16s71.5-100.5,88-117c15.01-15.01,36-29,59-26c-7,13-33.5,53.5-40,64c-4.5,7.26-13.5,27.5-14,45
		c-0.53,18.55,6,27,16,30"></path>
	<path class="st0 BlqSXfYV_1" d="M220,56c0,0-44-30-70-30c-33.06,0-57,16-61,38c-4.12,22.65,8,27,14,29s14,1,14,1"></path>
	<path class="st0 BlqSXfYV_2" d="M205,139c0,0,75-57,73-82s-48.35,18.62-58,54c-6,22-5.15,39.71,4,42c8,2,15,2,24-7s33-32,30-34
		c-1.66-1.11-26.68,28.62-25,37c2,10,16,14,41-10"></path>
	<path class="st0 BlqSXfYV_3" d="M339,121c0,0,1-8,0-11c-5-15-38,5-42.5,33.5c-4.29,27.17,25.5,16.5,35,11S352,137,352,137"></path>
	<path class="st0 BlqSXfYV_4" d="M354,142c0,0,44-15,44-26s-17-12-35,5s-13,32-6,37c8.65,6.18,17,7,30,0s27-23,27-23"></path>
</g>
<path class="st0 BlqSXfYV_5" d="M290,96c0,0-6,1-5,3"></path>
<style data-made-with="vivus-instant">.BlqSXfYV_0{stroke-dasharray:713 715;stroke-dashoffset:714;animation:BlqSXfYV_draw 1084ms ease-out 0ms forwards;}.BlqSXfYV_1{stroke-dasharray:206 208;stroke-dashoffset:207;animation:BlqSXfYV_draw 314ms ease-out 1084ms forwards;}.BlqSXfYV_2{stroke-dasharray:420 422;stroke-dashoffset:421;animation:BlqSXfYV_draw 639ms ease-out 1398ms forwards;}.BlqSXfYV_3{stroke-dasharray:153 155;stroke-dashoffset:154;animation:BlqSXfYV_draw 233ms ease-out 2038ms forwards;}.BlqSXfYV_4{stroke-dasharray:207 209;stroke-dashoffset:208;animation:BlqSXfYV_draw 315ms ease-out 2271ms forwards;}.BlqSXfYV_5{stroke-dasharray:7 9;stroke-dashoffset:8;animation:BlqSXfYV_draw 12ms ease-out 2587ms forwards;}@keyframes BlqSXfYV_draw{100%{stroke-dashoffset:0;}}@keyframes BlqSXfYV_fade{0%{stroke-opacity:1;}65.51724137931035%{stroke-opacity:1;}100%{stroke-opacity:0;}}</style></svg>
